<svg xmlns="http://www.w3.org/2000/svg" height="150" width="150">
    <path d="M29.49 50.27a.912.912 0 0 0-.13.012 1.125 1.141 0 0 0-.364.117l-23 12.035a1.097 1.112 0 0 0-.589 1.005v2.958a.314.319 0 0 0 0 .012 1.092 1.108 0 0 0 .577.97l20.897 11.708a.412.418 0 0 1 .212.372V91a1.118 1.118 0 0 0 1.111 1.11h1.311a1.105 1.12 0 0 0 1.086-1.11V78.163c0-.258.168-.416.424-.416h12.406c.255 0 .415.16.415.416v12.838a1.119 1.119 0 0 0 1.111 1.11h1.308a1.108 1.124 0 0 0 1.085-1.11V68c0-.175.038-.247.084-.298a.459.465 0 0 1 .248-.121.471.478 0 0 1 .283.012c.056.025.113.077.178.205.006.013.006.006.012.019a.314.319 0 0 0 0 .012l9.574 21.25c.195.431.613.667 1.015.66a1.105 1.12 0 0 0 .992-.694l6.031-15.204c.095-.24.203-.263.403-.263s.295.024.39.26l6.022 15.208c.17.451.581.708.99.717a1.116 1.132 0 0 0 1.039-.67l9.56-21.264c.073-.16.131-.201.191-.228a.437.443 0 0 1 .27-.013.459.465 0 0 1 .249.122c.047.049.081.122.083.298v22.988a.314.319 0 0 0 0 .012 1.105 1.12 0 0 0 1.11 1.1h1.312a1.094 1.11 0 0 0 1.095-1.1.314.319 0 0 0 0-.012V65.11a1.094 1.11 0 0 0-1.095-1.1h-4.512a1.092 1.108 0 0 0-1.005.633.314.319 0 0 0-.01 0c-2.652 5.835-5.294 11.682-7.945 17.515-.102.225-.207.257-.402.252-.194-.004-.286-.049-.377-.276l-5.95-14.867a1.1 1.116 0 0 0-1.016-.717 1.116 1.132 0 0 0-1.027.717L59.18 82.134c-.094.232-.186.271-.377.276-.197.005-.29-.024-.392-.252L50.47 64.643a1.108 1.124 0 0 0-1.004-.634h-4.51a1.103 1.119 0 0 0-1.11 1.1v8.622c0 .257-.169.443-.415.443H31.025c-.248 0-.424-.186-.424-.444v-8.62a1.097 1.112 0 0 0-1.086-1.1h-1.311a1.103 1.119 0 0 0-1.111 1.1v9.149a.752.752 0 0 1-.27.526c-.18.133-.205.138-.332.071a.314.319 0 0 0-.013 0 .314.319 0 0 0-.047-.024.314.319 0 0 0-.036-.012c-5.772-3.016-11.524-6.302-17.304-9.386a.434.44 0 0 1-.212-.265 1.43 1.45 0 0 1 .012-.441.959.972 0 0 1 .223-.324 1.09 1.106 0 0 1 .164-.12c.077-.024.157-.054.226-.095 6.808-3.626 13.682-7.116 20.504-10.694a1.103 1.119 0 0 0 .593-.99V51.39a1.105 1.12 0 0 0-1.111-1.125zm63.89 13.744a1.108 1.124 0 0 0-1.096 1.126v25.857a1.116 1.132 0 0 0 1.108 1.116h1.298a1.106 1.122 0 0 0 1.1-1.116V78.163c0-.255.172-.417.426-.417h10.823a1.103 1.119 0 0 0 1.099-1.126v-1.342a1.097 1.112 0 0 0-1.1-1.1H96.216c-.247 0-.426-.188-.426-.444V68c0-.255.172-.42.426-.42H115.6c.254 0 .414.163.414.42v22.997c.005.606.488 1.108 1.085 1.116a.314.319 0 0 0 .01 0h1.299a1.114 1.13 0 0 0 1.11-1.116V68c0-.259.161-.42.416-.42h7.14a.41.41 0 0 1 .355.192l7.615 12.249a.393.398 0 0 1 .07.215v10.76a1.111 1.127 0 0 0 1.087 1.116h1.307a1.111 1.127 0 0 0 1.088-1.115V80.236c0-.07.022-.137.07-.215l8.867-14.296c.454-.727-.072-1.708-.92-1.711h-1.501a1.1 1.116 0 0 0-.943.516l-6.967 11.205c-.1.161-.228.215-.354.215-.125 0-.251-.055-.352-.215L129.52 64.53a1.094 1.11 0 0 0-.921-.516c-11.732 0-23.473-.007-35.206 0zM3.411 70.706a.631.631 0 0 0-.107.012 1.094 1.11 0 0 0-1.005 1.1v1.294a1.12 1.136 0 0 0 .582.983l16.998 9.481.012.012a.314.319 0 0 0 .037.025.314.319 0 0 0 .047.037c.146.08.223.202.223.36v1.96c0 .16-.074.297-.212.375a.314.319 0 0 0-.071.049L2.869 96.307a1.1 1.116 0 0 0-.569.969v1.354a.314.319 0 0 0 0 .013c.007.841.939 1.367 1.655.943l18.699-10.98a1.099 1.114 0 0 0 .543-.972v-5.207a1.105 1.12 0 0 0-.567-.972C16.4 77.922 3.944 70.85 3.944 70.85a.314.319 0 0 0-.014 0 1.083 1.098 0 0 0-.518-.143z" fill="none" stroke="#e9a" stroke-width="1.2" stroke-linecap="round" stroke-linejoin="round" stroke-dasharray="20 30 10 40" stroke-dashoffset="-100">
        <animate restart="always" repeatCount="indefinite" dur="3s" to="100" from="-100" attributeName="stroke-dashoffset" begin="0s"/>
        <animate id="l1" dur="5s" to="40 10 50 0" from="20 30 10 40" attributeName="stroke-dasharray" begin="0s;l2.end" calcMode="paced"/>
        <animate id="l2" dur="5s" to="20 30 10 40" from="40 10 50 0" attributeName="stroke-dasharray" begin="l1.end" calcMode="paced"/>
    </path>
</svg>
