<svg xmlns="http://www.w3.org/2000/svg" xmlns:xlink="http://www.w3.org/1999/xlink" width="150" height="150" viewBox="0 0 26 26">
    <path transform="scale(.26)" d="M21.041 34.48c-.026 0-.056.005-.082.008a.716.716 0 0 0-.232.074L6.092 42.113a.698.698 0 0 0-.375.631V44.6a.2.2 0 0 0 0 .007.695.695 0 0 0 .367.608l13.297 7.347a.262.262 0 0 1 .135.233v7.242c.003.384.322.7.707.697h.834a.703.703 0 0 0 .691-.697v-8.055c0-.162.107-.261.27-.261h7.894c.162 0 .264.1.264.261v8.055c.003.384.323.7.707.697h.832a.705.705 0 0 0 .691-.697V45.605c0-.11.024-.155.053-.187a.292.292 0 0 1 .158-.076.3.3 0 0 1 .18.008c.036.015.072.048.113.129.004.007.004.004.008.013a.2.2 0 0 0 0 .008l6.092 13.334c.124.27.39.418.646.414a.703.703 0 0 0 .631-.436l3.838-9.54c.06-.15.129-.165.256-.165s.188.015.248.164l3.832 9.542c.109.283.37.444.63.45a.71.71 0 0 0 .661-.421L55.836 45.5c.046-.1.083-.126.121-.143a.278.278 0 0 1 .172-.007.292.292 0 0 1 .158.076c.03.032.052.077.053.187v14.424a.2.2 0 0 0 0 .008.703.703 0 0 0 .707.69h.834a.696.696 0 0 0 .697-.69.2.2 0 0 0 0-.008V43.795a.696.696 0 0 0-.697-.691H55.01a.695.695 0 0 0-.639.398.2.2 0 0 0-.006 0c-1.688 3.661-3.369 7.33-5.056 10.99-.065.141-.132.161-.256.158-.123-.003-.182-.03-.24-.173l-3.786-9.329a.7.7 0 0 0-.646-.45.71.71 0 0 0-.654.45l-3.793 9.329c-.06.145-.118.17-.24.173-.125.003-.184-.017-.249-.158l-5.054-10.99a.705.705 0 0 0-.639-.398h-2.87a.702.702 0 0 0-.706.69v5.41c0 .161-.107.278-.264.278h-7.894c-.158 0-.27-.117-.27-.279v-5.408a.698.698 0 0 0-.691-.691h-.834a.702.702 0 0 0-.707.69v5.741c0 .11-.078.261-.172.33-.114.084-.13.087-.211.045a.2.2 0 0 0-.008 0 .2.2 0 0 0-.03-.015.2.2 0 0 0-.023-.008c-3.673-1.892-7.333-3.954-11.011-5.889a.276.276 0 0 1-.135-.166.91.91 0 0 1 .008-.277.61.61 0 0 1 .142-.203.694.694 0 0 1 .104-.075c.049-.014.1-.035.144-.06 4.332-2.275 8.706-4.465 13.047-6.71a.702.702 0 0 0 .377-.622v-.699a.703.703 0 0 0-.707-.706zm40.654 8.624a.705.705 0 0 0-.697.707v16.224a.71.71 0 0 0 .705.7h.826a.704.704 0 0 0 .7-.7v-8.053c0-.16.109-.261.271-.261h6.887a.702.702 0 0 0 .699-.707v-.842a.698.698 0 0 0-.7-.69H63.5c-.157 0-.271-.118-.271-.279v-3.598c0-.16.109-.263.271-.263h12.334c.162 0 .264.102.264.263v14.43c.003.38.31.695.69.7a.2.2 0 0 0 .007 0h.826a.709.709 0 0 0 .707-.7v-14.43c0-.162.102-.263.264-.263h4.543c.094 0 .177.043.226.12l4.846 7.686a.25.25 0 0 1 .045.135v6.752a.707.707 0 0 0 .691.7h.832a.707.707 0 0 0 .692-.7v-6.752c0-.044.014-.086.045-.135l5.642-8.97c.289-.456-.046-1.072-.586-1.074h-.955a.7.7 0 0 0-.6.324l-4.433 7.031c-.064.101-.145.135-.225.135-.08 0-.16-.034-.224-.135l-4.44-7.031a.696.696 0 0 0-.586-.324c-7.465 0-14.936-.004-22.402 0h-.008zM4.447 47.303c-.022 0-.046.005-.068.008a.696.696 0 0 0-.639.69v.812a.713.713 0 0 0 .37.617l10.816 5.949.008.008a.2.2 0 0 0 .023.015.2.2 0 0 0 .03.022c.093.05.142.127.142.226v1.23c0 .1-.047.186-.135.235a.2.2 0 0 0-.045.03l-10.847 6.22a.7.7 0 0 0-.362.608v.85a.2.2 0 0 0 0 .007c.004.528.597.858 1.053.592l11.898-6.887a.699.699 0 0 0 .346-.61v-3.267a.703.703 0 0 0-.361-.61c-3.964-2.217-11.89-6.655-11.89-6.655a.2.2 0 0 0-.009 0 .689.689 0 0 0-.33-.09z" fill="none" stroke-linecap="round" stroke-linejoin="round" stroke-width="0.8" stroke="#e9a" stroke-dasharray="20 20 20 20 20" stroke-dashoffset="-50">
        <animate begin="0s" attributeName="stroke-dashoffset" from="-100" to="100" dur="5s" repeatCount="indefinite" restart="always"/>
    </path>
</svg>